<svg xmlns="http://www.w3.org/2000/svg" fill="none" viewBox="0 0 48 48"><g clip-path="url(#clip0)"><path fill="#EC407A" d="M28.3 34.3L13.8 19.8a.7.7 0 00-1.1.2L.3 45.2c-.4.8-.2 1.6.4 2.2a1.9 1.9 0 002.1.4l25.3-12.4a.7.7 0 00.2-1.1z"/><path fill="#C2185B" d="M28.3 34.3L13.8 19.8a.7.7 0 00-1 0l-1 1.8L22.3 32a3 3 0 01-.8 5L.4 47l.3.3a1.9 1.9 0 002.1.4l25.3-12.4a.7.7 0 00.2-1.1z"/><path fill="#42A5F5" d="M9.8 25.9l2.9-5.9a30.3 30.3 0 0012.2 17l-4.7 2.3c-4.5-3.6-8-8.2-10.4-13.4zM.3 45.2a2 2 0 002.5 2.6l3.8-1.9c-1.5-1.5-2.9-3.2-4.2-5L.3 45.2zm7-14l-2.5 5c1.8 2.7 3.9 5.2 6.3 7.6l4.5-2.3a44.5 44.5 0 01-8.4-10.4z"/><path fill="#FFCA28" d="M31.6 31L17 16.6a3 3 0 00-4.2 4.3l14.5 14.5a3 3 0 004.3-4.2z"/><path fill="#FFA000" d="M31.6 31L17 16.6a3 3 0 00-4-.2l.3.2 14.5 14.6a3 3 0 01-.2 4.4 3 3 0 004-4.4z"/><path fill="#EF5350" d="M46 5.1L44.6.3c-.1-.3-.6-.4-.8-.2l-1.3 1.4c-.4.4-.6 1-.5 1.5l1.3 4.6c.2.6 0 1.2-.4 1.6l2.5-2.5c.4-.5.6-1 .4-1.6zM35.8 15.3l-1.3-4.6c-.2-.6 0-1.2.4-1.6l2.5-2.5C37 7 37 7.6 37 8l1.3 4.7c.1.5 0 1-.4 1.5l-2.5 2.5c.4-.4.5-1 .4-1.5zM30.6 20.4l-1.2-4.6c-.2-.6 0-1.2.4-1.6l-2.5 2.6c-.4.4-.6 1-.5 1.5l1.3 4.8c.1.3.6.4.8.2l1.3-1.4c.4-.4.6-1 .4-1.5z"/><path fill="#FFCA28" d="M43.4 7.6l-.1-.5L39.2 6c-.6-.2-1.2 0-1.6.4l-.2.2C37 7 37 7.6 37 8l.2.6 4 1c.6.2 1.2 0 1.6-.3l.2-.2c.4-.4.6-1 .4-1.6zM35.8 15.3l-.2-.5-4-1.2c-.6-.1-1.2 0-1.6.4l-.2.2c-.4.4-.6 1-.4 1.6l.1.5 4.1 1.1c.6.2 1.2 0 1.6-.4l.2-.2c.4-.4.5-1 .4-1.5z"/><path fill="#42A5F5" d="M27.7 5.7a1.4 1.4 0 11-2.8 0 1.4 1.4 0 012.8 0z"/><path fill="#FFA000" d="M23.3 12.7v-1.3c0-.3.2-.5.5-.5h2.9c.3 0 .5.2.5.5v1.3c0 .3-.2.5-.5.5h-2.9a.5.5 0 01-.5-.5zM32.7 6h-1.2a.5.5 0 01-.5-.5v-3c0-.2.2-.5.5-.5h1.2c.3 0 .6.3.6.6v2.9c0 .2-.3.5-.6.5z"/><path fill="#42A5F5" d="M37.5 22.9a1.4 1.4 0 11-2.8 0 1.4 1.4 0 012.8 0zM45.5 16a1.4 1.4 0 11-2.8 0 1.4 1.4 0 012.8 0z"/><path fill="#FFA000" d="M43.3 23.7l.9-.9c.2-.2.2-.5 0-.7l-2-2a.5.5 0 00-.8 0l-.9.8c-.2.2-.2.6 0 .8l2 2c.3.2.6.2.8 0z"/><path fill="#1976D2" d="M5.5 44.7L.5 47v.2l.2.1a2 2 0 00.2.3h.2l.2.1.2.1a1.8 1.8 0 001.1 0 2.5 2.5 0 00.2-.1l3.8-1.9a51 51 0 01-1.1-1.2zM14.3 40.3l-4.4 2.2 1.2 1.3 4.5-2.3a49 49 0 01-1.3-1.2zM22.8 35.4a3 3 0 01-1.4 1.5L18.8 38l1.4 1.2 3.4-1.7L25 37a31 31 0 01-2-1.6z"/><path fill="#EF5350" d="M21.1 2.2l-3-2.1a.5.5 0 00-.8.4V2c0 .5.2 1 .6 1.2l3.2 2.3c.4.2.6.7.6 1.3V3.5c0-.5-.2-1-.6-1.3zM21.1 12.3L18 10.1c-.4-.3-.6-.8-.6-1.3v3.3c0 .6.2 1 .6 1.3l3.1 2.2c.3.2.7 0 .7-.4v-1.6c0-.5-.2-1-.6-1.3z"/><path fill="#FFCA28" d="M21.1 5.6c.4.2.6.7.6 1.3V7c0 .5-.2 1-.6 1.3l-2.8 2-.4-.3c-.4-.3-.6-.8-.6-1.3v-.2c0-.6.2-1 .6-1.3l2.8-2 .4.3z"/><path fill="#EF5350" d="M45.9 27l2.1 3c.2.4 0 .8-.4.8H46c-.5 0-1-.2-1.3-.6L42.5 27c-.2-.4-.7-.6-1.3-.6h3.4c.5 0 1 .2 1.3.6zM35.8 27l2.2 3.2c.3.4.8.6 1.3.6H36c-.6 0-1-.2-1.3-.6L32.5 27c-.2-.3 0-.7.4-.7h1.6c.5 0 1 .2 1.3.6z"/><path fill="#FFCA28" d="M42.5 27c-.2-.4-.7-.6-1.3-.6H41c-.5 0-1 .2-1.3.6l-2 2.8.3.4c.3.4.8.6 1.3.6h.2c.6 0 1-.2 1.3-.6l2-2.9-.3-.3z"/></g><defs><clipPath id="clip0"><path fill="#fff" d="M0 0h48v48H0z"/></clipPath></defs></svg>