<svg width="15" height="12" viewBox="0 0 15 12" fill="none" xmlns="http://www.w3.org/2000/svg">
<path fill-rule="evenodd" clip-rule="evenodd" d="M6.78039 0.969013C6.85023 1.03868 6.90565 1.12144 6.94346 1.21256C6.98127 1.30368 7.00073 1.40136 7.00073 1.50001C7.00073 1.59866 6.98127 1.69635 6.94346 1.78746C6.90565 1.87858 6.85023 1.96134 6.78039 2.03101L2.80989 6.00001L6.78039 9.96901C6.85012 10.0387 6.90543 10.1215 6.94317 10.2126C6.98091 10.3037 7.00034 10.4014 7.00034 10.5C7.00034 10.5986 6.98091 10.6963 6.94317 10.7874C6.90543 10.8785 6.85012 10.9613 6.78039 11.031C6.71066 11.1007 6.62787 11.1561 6.53676 11.1938C6.44565 11.2315 6.348 11.251 6.24939 11.251C6.15077 11.251 6.05312 11.2315 5.96201 11.1938C5.8709 11.1561 5.78812 11.1007 5.71839 11.031L1.21839 6.53101C1.14854 6.46134 1.09313 6.37858 1.05532 6.28746C1.01751 6.19634 0.998047 6.09866 0.998047 6.00001C0.998047 5.90136 1.01751 5.80368 1.05532 5.71256C1.09313 5.62144 1.14854 5.53868 1.21839 5.46901L5.71839 0.969013C5.78806 0.899168 5.87082 0.843753 5.96194 0.805944C6.05305 0.768134 6.15074 0.748672 6.24939 0.748672C6.34804 0.748672 6.44572 0.768134 6.53684 0.805944C6.62796 0.843753 6.71072 0.899168 6.78039 0.969013Z" fill="black"/>
<path fill-rule="evenodd" clip-rule="evenodd" d="M2 6C2 5.73478 2.05955 5.48043 2.16555 5.29289C2.27155 5.10536 2.41531 5 2.56522 5H14.4348C14.5847 5 14.7285 5.10536 14.8345 5.29289C14.9405 5.48043 15 5.73478 15 6C15 6.26522 14.9405 6.51957 14.8345 6.70711C14.7285 6.89464 14.5847 7 14.4348 7H2.56522C2.41531 7 2.27155 6.89464 2.16555 6.70711C2.05955 6.51957 2 6.26522 2 6Z" fill="black"/>
</svg>
