<svg width="14" height="10" viewBox="0 0 14 10" fill="none" xmlns="http://www.w3.org/2000/svg">
<path d="M13.0667 0H0.933333C0.373333 0 0 0.4 0 1C0 1.6 0.373333 2 0.933333 2H13.0667C13.6267 2 14 1.6 14 1C14 0.4 13.6267 0 13.0667 0Z" fill="black"/>
<path d="M13.0667 4H0.933333C0.373333 4 0 4.4 0 5C0 5.6 0.373333 6 0.933333 6H13.0667C13.6267 6 14 5.6 14 5C14 4.4 13.6267 4 13.0667 4Z" fill="black"/>
<path d="M7.46667 8H0.533333C0.213333 8 0 8.4 0 9C0 9.6 0.213333 10 0.533333 10H7.46667C7.78667 10 8 9.6 8 9C8 8.4 7.78667 8 7.46667 8Z" fill="black"/>
</svg>
