<svg width="24" height="20" viewBox="0 0 24 20" fill="none" xmlns="http://www.w3.org/2000/svg">
<rect x="0.5" y="0.5" width="23" height="19" rx="1.5" stroke="black"/>
<path d="M18.0667 5H5.93333C5.37333 5 5 5.4 5 6C5 6.6 5.37333 7 5.93333 7H18.0667C18.6267 7 19 6.6 19 6C19 5.4 18.6267 5 18.0667 5Z" fill="black"/>
<path d="M18.0667 9H5.93333C5.37333 9 5 9.4 5 10C5 10.6 5.37333 11 5.93333 11H18.0667C18.6267 11 19 10.6 19 10C19 9.4 18.6267 9 18.0667 9Z" fill="black"/>
<path d="M12.4667 13H5.53333C5.21333 13 5 13.4 5 14C5 14.6 5.21333 15 5.53333 15H12.4667C12.7867 15 13 14.6 13 14C13 13.4 12.7867 13 12.4667 13Z" fill="black"/>
</svg>
